<?xml version="1.0" encoding="UTF-8"?>
<svg version="1.1" xmlns="http://www.w3.org/2000/svg" width="215" height="185">
<path d="M0 0 C32.01 0 64.02 0 97 0 C97 40.59 97 81.18 97 123 C91.7823235 122.25461764 87.87118306 121.44044421 83.0078125 119.75 C82.3764035 119.53182617 81.74499451 119.31365234 81.0944519 119.08886719 C79.77416492 118.63125226 78.45492534 118.17060489 77.13671875 117.70703125 C75.11181878 116.99536738 73.08361092 116.2938508 71.0546875 115.59375 C61.15029769 112.15029769 61.15029769 112.15029769 60 111 C59.90560022 108.73008113 59.88257774 106.45718033 59.88647461 104.18530273 C59.88632858 103.47314606 59.88618256 102.76098938 59.8860321 102.0272522 C59.8867313 99.66266888 59.89452394 97.29816339 59.90234375 94.93359375 C59.90420791 93.29834537 59.90563182 91.66309643 59.90663147 90.02784729 C59.91045682 85.71565215 59.92028725 81.40349048 59.93133545 77.09130859 C59.9415492 72.69434054 59.94612901 68.29736711 59.95117188 63.90039062 C59.96190951 55.26690998 59.97950644 46.63346301 60 38 C52.41 38 44.82 38 37 38 C37 66.05 37 94.1 37 123 C40.63 123.99 44.26 124.98 48 126 C49.85099366 126.57526011 51.69706072 127.16739335 53.53149414 127.79345703 C54.93202782 128.26877365 54.93202782 128.26877365 56.3608551 128.75369263 C57.32587448 129.08505219 58.29089386 129.41641174 59.28515625 129.7578125 C60.30806259 130.1063327 61.33096893 130.45485291 62.38487244 130.81393433 C64.52396703 131.54348376 66.66251726 132.27463111 68.80053711 133.00732422 C72.0838594 134.13231856 75.36892606 135.25209757 78.65429688 136.37109375 C80.73968606 137.0830325 82.82497618 137.7952615 84.91015625 138.5078125 C85.89339371 138.84322052 86.87663116 139.17862854 87.8896637 139.52420044 C89.2476432 139.99006058 89.2476432 139.99006058 90.63305664 140.46533203 C91.43038712 140.73830109 92.22771759 141.01127014 93.04920959 141.29251099 C95 142 95 142 97 143 C97 155.87 97 168.74 97 182 C89.12485492 180.87497927 89.12485492 180.87497927 85.78616333 179.74755859 C85.02912613 179.49520447 84.27208893 179.24285034 83.49211121 178.98284912 C82.68663345 178.70749329 81.8811557 178.43213745 81.05126953 178.1484375 C80.18378586 177.85729065 79.31630219 177.5661438 78.42253113 177.26617432 C75.57391761 176.30838766 72.72834881 175.34188676 69.8828125 174.375 C67.89996182 173.7057698 65.91695779 173.03699381 63.93380737 172.36865234 C59.78856917 170.9702441 55.64473969 169.56776357 51.50195312 168.16210938 C46.1807163 166.3567499 40.85680473 164.55943954 35.53192329 162.76486206 C31.4426281 161.38613754 27.35438883 160.00430546 23.2665062 158.62139893 C21.3026513 157.95722572 19.33855249 157.29377328 17.37421036 156.63104248 C14.63923242 155.70755221 11.90561197 154.78015624 9.17236328 153.8515625 C8.35474014 153.57620667 7.537117 153.30085083 6.69471741 153.01715088 C1.11449131 151.11449131 1.11449131 151.11449131 0 150 C-0.09662973 148.063717 -0.12187144 146.12385738 -0.12025452 144.18516541 C-0.12162918 142.92166763 -0.12300385 141.65816986 -0.12442017 140.35638428 C-0.12088055 138.94323707 -0.11724574 137.5300901 -0.11352539 136.11694336 C-0.11324353 134.63898216 -0.11340124 133.16102081 -0.1139679 131.68305969 C-0.1142559 127.65844172 -0.1083587 123.63385328 -0.10139394 119.6092422 C-0.09516088 115.40783635 -0.09455664 111.2064299 -0.09336853 107.00502014 C-0.09025507 99.04353743 -0.08204149 91.08206838 -0.07201904 83.1205917 C-0.05877325 72.3661424 -0.05335811 61.61168939 -0.04751682 50.857234 C-0.0381016 33.90481243 -0.01818279 16.95241969 0 0 Z " fill="#EC268F" transform="translate(0,2)"/>
<path d="M0 0 C32.34 0 64.68 0 98 0 C98 49.17 98 98.34 98 149 C91.74785552 151.50085779 85.58850256 153.90326485 79.21728516 156.02441406 C78.40295013 156.29809814 77.58861511 156.57178223 76.74960327 156.85375977 C74.09712605 157.7441766 71.44320631 158.63018936 68.7890625 159.515625 C66.92960771 160.13758848 65.07018233 160.75963992 63.21078491 161.3817749 C59.33344958 162.67819202 55.45530764 163.97216267 51.57666016 165.26464844 C46.60472184 166.92189308 41.63559996 168.58741788 36.66712379 170.2550087 C32.83726317 171.53902938 29.00560422 172.81761369 25.17341232 174.0946579 C23.33952867 174.70673923 21.50629342 175.32076687 19.67372513 175.93677521 C17.11979087 176.79460251 14.56344621 177.64482386 12.00634766 178.49316406 C10.87329193 178.87646881 10.87329193 178.87646881 9.71734619 179.26751709 C6.264897 180.40449904 3.677168 181 0 181 C0 168.13 0 155.26 0 142 C2.76246094 141.05898437 5.52492188 140.11796875 8.37109375 139.1484375 C11.10855456 138.21522553 13.84590796 137.28169912 16.58325195 136.34814453 C18.4555363 135.70979662 20.3279285 135.07176492 22.20043945 134.43408203 C24.92429035 133.50640956 27.64776556 132.57764327 30.37109375 131.6484375 C31.26533051 131.34371521 32.15956726 131.03899292 33.0809021 130.72503662 C37.40984122 129.24548902 41.73016807 127.74680529 46.03564453 126.20019531 C46.81827164 125.91963287 47.60089874 125.63907043 48.40724182 125.3500061 C49.86936625 124.82370984 51.33002876 124.2933275 52.78892517 123.75814819 C55.67376617 122.71922673 57.90660853 122 61 122 C61 93.95 61 65.9 61 37 C53.08 37 45.16 37 37 37 C37 61.42 37 85.84 37 111 C24.79 114.96 12.58 118.92 0 123 C0 82.41 0 41.82 0 0 Z " fill="#EB258E" transform="translate(117,3)"/>
</svg>
